<svg width="70" height="42" viewBox="0 0 70 42" fill="none" xmlns="http://www.w3.org/2000/svg">
<path d="M35 8.75C29.2009 8.75 24.5 14.2341 24.5 21C24.5 27.7648 29.2009 33.25 35 33.25C40.7969 33.25 45.5 27.767 45.5 21C45.5 14.2341 40.7991 8.75 35 8.75ZM39.375 27.125C39.375 27.6084 38.9834 28 38.5 28H31.5C31.0166 28 30.625 27.6084 30.625 27.125V25.375C30.625 24.8916 31.0166 24.5 31.5 24.5H33.25V18.4362L33.1986 18.4702C33.103 18.5339 32.9958 18.5782 32.8831 18.6006C32.7704 18.6229 32.6544 18.6228 32.5418 18.6002C32.4291 18.5777 32.322 18.5331 32.2266 18.4691C32.1312 18.4052 32.0493 18.323 31.9856 18.2273L31.0144 16.7716C30.9506 16.676 30.9063 16.5688 30.884 16.4561C30.8617 16.3434 30.8618 16.2274 30.8843 16.1147C30.9069 16.0021 30.9514 15.895 31.0154 15.7996C31.0794 15.7041 31.1615 15.6222 31.2572 15.5586L32.9339 14.4408C33.365 14.1533 33.8716 14 34.3897 14H35.875C36.3584 14 36.75 14.3916 36.75 14.875V24.5H38.5C38.9834 24.5 39.375 24.8916 39.375 25.375V27.125ZM66.5 0H3.5C1.56734 0 0 1.56734 0 3.5V38.5C0 40.4327 1.56734 42 3.5 42H66.5C68.4327 42 70 40.4327 70 38.5V3.5C70 1.56734 68.4327 0 66.5 0ZM64.75 29.75C60.8836 29.75 57.75 32.8836 57.75 36.75H12.25C12.25 32.8836 9.11641 29.75 5.25 29.75V12.25C9.11641 12.25 12.25 9.11641 12.25 5.25H57.75C57.75 9.11641 60.8836 12.25 64.75 12.25V29.75Z" fill="#CFD1D8"/>
</svg>
